<?xml version="1.0" encoding="utf-8" standalone="no"?>
<!DOCTYPE svg PUBLIC "-//W3C//DTD SVG 1.1//EN"
  "http://www.w3.org/Graphics/SVG/1.1/DTD/svg11.dtd">
<svg xmlns:xlink="http://www.w3.org/1999/xlink" width="523.875029pt" height="207.839301pt" viewBox="0 0 523.875029 207.839301" xmlns="http://www.w3.org/2000/svg" version="1.1">
 <metadata>
  <rdf:RDF xmlns:dc="http://purl.org/dc/elements/1.1/" xmlns:cc="http://creativecommons.org/ns#" xmlns:rdf="http://www.w3.org/1999/02/22-rdf-syntax-ns#">
   <cc:Work>
    <dc:type rdf:resource="http://purl.org/dc/dcmitype/StillImage"/>
    <dc:date>2026-10-06T22:37:12.822945</dc:date>
    <dc:format>image/svg+xml</dc:format>
    <dc:creator>
     <cc:Agent>
      <dc:title>Matplotlib v3.11.1, https://matplotlib.org/</dc:title>
     </cc:Agent>
    </dc:creator>
   </cc:Work>
  </rdf:RDF>
 </metadata>
 <defs>
  <style type="text/css">*{stroke-linejoin: round; stroke-linecap: butt}</style>
 </defs>
 <g id="figure_1">
  <g id="patch_1">
   <path d="M 0 207.839301 
L 523.875029 207.839301 
L 523.875029 0 
L 0 0 
z
" style="fill: #ffffff"/>
  </g>
  <g id="axes_1">
   <g id="patch_2">
    <path d="M 39.52625 187.066 
L 205.787872 187.066 
L 205.787872 48.718 
L 39.52625 48.718 
z
" style="fill: #ffffff"/>
   </g>
   <g id="line2d_1">
    <path d="M 39.52625 152.479 
L 205.787872 152.479 
" clip-path="url(#p7d11b9f6b9)" style="fill: none; stroke-dasharray: 0.8,1.32; stroke-dashoffset: 0; stroke: #8a8a8a; stroke-width: 0.8"/>
   </g>
   <g id="matplotlib.axis_1">
    <g id="xtick_1">
     <g id="line2d_2">
      <defs>
       <path id="mea4c8e79f9" d="M 0 0 
L 0 3.5 
" style="stroke: #000000; stroke-width: 0.7"/>
      </defs>
      <g>
       <use xlink:href="#mea4c8e79f9" x="73.583383" y="187.066" style="stroke: #000000; stroke-width: 0.7"/>
      </g>
     </g>
     <g id="text_1">
      <text style="font-size: 7px; font-family: 'Arial', 'Helvetica', 'DejaVu Sans', sans-serif; text-anchor: middle" x="73.583383" y="199.166156" transform="rotate(-0 73.583383 199.166156)">Quzhou</text>
     </g>
    </g>
    <g id="xtick_2">
     <g id="line2d_3">
      <g>
       <use xlink:href="#mea4c8e79f9" x="171.730739" y="187.066" style="stroke: #000000; stroke-width: 0.7"/>
      </g>
     </g>
     <g id="text_2">
      <text style="font-size: 7px; font-family: 'Arial', 'Helvetica', 'DejaVu Sans', sans-serif; text-anchor: middle" x="171.730739" y="199.162191" transform="rotate(-0 171.730739 199.162191)">Africa</text>
     </g>
    </g>
   </g>
   <g id="matplotlib.axis_2">
    <g id="ytick_1">
     <g id="line2d_4">
      <path d="M 39.52625 175.537 
L 205.787872 175.537 
" clip-path="url(#p7d11b9f6b9)" style="fill: none; stroke: #ececec; stroke-width: 0.55; stroke-linecap: square"/>
     </g>
     <g id="line2d_5">
      <defs>
       <path id="m49930c1596" d="M 0 0 
L -3.5 0 
" style="stroke: #000000; stroke-width: 0.7"/>
      </defs>
      <g>
       <use xlink:href="#m49930c1596" x="39.52625" y="175.537" style="stroke: #000000; stroke-width: 0.7"/>
      </g>
     </g>
     <g id="text_3">
      <text style="font-size: 7px; font-family: 'Arial', 'Helvetica', 'DejaVu Sans', sans-serif; text-anchor: end" x="32.52625" y="178.085096" transform="rotate(-0 32.52625 178.085096)">−0.1</text>
     </g>
    </g>
    <g id="ytick_2">
     <g id="line2d_6">
      <path d="M 39.52625 152.479 
L 205.787872 152.479 
" clip-path="url(#p7d11b9f6b9)" style="fill: none; stroke: #ececec; stroke-width: 0.55; stroke-linecap: square"/>
     </g>
     <g id="line2d_7">
      <g>
       <use xlink:href="#m49930c1596" x="39.52625" y="152.479" style="stroke: #000000; stroke-width: 0.7"/>
      </g>
     </g>
     <g id="text_4">
      <text style="font-size: 7px; font-family: 'Arial', 'Helvetica', 'DejaVu Sans', sans-serif; text-anchor: end" x="32.52625" y="155.027096" transform="rotate(-0 32.52625 155.027096)">0.0</text>
     </g>
    </g>
    <g id="ytick_3">
     <g id="line2d_8">
      <path d="M 39.52625 129.421 
L 205.787872 129.421 
" clip-path="url(#p7d11b9f6b9)" style="fill: none; stroke: #ececec; stroke-width: 0.55; stroke-linecap: square"/>
     </g>
     <g id="line2d_9">
      <g>
       <use xlink:href="#m49930c1596" x="39.52625" y="129.421" style="stroke: #000000; stroke-width: 0.7"/>
      </g>
     </g>
     <g id="text_5">
      <text style="font-size: 7px; font-family: 'Arial', 'Helvetica', 'DejaVu Sans', sans-serif; text-anchor: end" x="32.52625" y="131.969096" transform="rotate(-0 32.52625 131.969096)">0.1</text>
     </g>
    </g>
    <g id="ytick_4">
     <g id="line2d_10">
      <path d="M 39.52625 106.363 
L 205.787872 106.363 
" clip-path="url(#p7d11b9f6b9)" style="fill: none; stroke: #ececec; stroke-width: 0.55; stroke-linecap: square"/>
     </g>
     <g id="line2d_11">
      <g>
       <use xlink:href="#m49930c1596" x="39.52625" y="106.363" style="stroke: #000000; stroke-width: 0.7"/>
      </g>
     </g>
     <g id="text_6">
      <text style="font-size: 7px; font-family: 'Arial', 'Helvetica', 'DejaVu Sans', sans-serif; text-anchor: end" x="32.52625" y="108.911096" transform="rotate(-0 32.52625 108.911096)">0.2</text>
     </g>
    </g>
    <g id="ytick_5">
     <g id="line2d_12">
      <path d="M 39.52625 83.305 
L 205.787872 83.305 
" clip-path="url(#p7d11b9f6b9)" style="fill: none; stroke: #ececec; stroke-width: 0.55; stroke-linecap: square"/>
     </g>
     <g id="line2d_13">
      <g>
       <use xlink:href="#m49930c1596" x="39.52625" y="83.305" style="stroke: #000000; stroke-width: 0.7"/>
      </g>
     </g>
     <g id="text_7">
      <text style="font-size: 7px; font-family: 'Arial', 'Helvetica', 'DejaVu Sans', sans-serif; text-anchor: end" x="32.52625" y="85.853096" transform="rotate(-0 32.52625 85.853096)">0.3</text>
     </g>
    </g>
    <g id="ytick_6">
     <g id="line2d_14">
      <path d="M 39.52625 60.247 
L 205.787872 60.247 
" clip-path="url(#p7d11b9f6b9)" style="fill: none; stroke: #ececec; stroke-width: 0.55; stroke-linecap: square"/>
     </g>
     <g id="line2d_15">
      <g>
       <use xlink:href="#m49930c1596" x="39.52625" y="60.247" style="stroke: #000000; stroke-width: 0.7"/>
      </g>
     </g>
     <g id="text_8">
      <text style="font-size: 7px; font-family: 'Arial', 'Helvetica', 'DejaVu Sans', sans-serif; text-anchor: end" x="32.52625" y="62.795096" transform="rotate(-0 32.52625 62.795096)">0.4</text>
     </g>
    </g>
    <g id="text_9">
     <text style="font-size: 8px; font-family: 'Arial', 'Helvetica', 'DejaVu Sans', sans-serif; text-anchor: middle" x="13.024219" y="117.892" transform="rotate(-90 13.024219 117.892)">Pearson correlation</text>
    </g>
   </g>
   <g id="patch_3">
    <path d="M 39.52625 187.066 
L 39.52625 48.718 
" style="fill: none; stroke: #333333; stroke-width: 0.8; stroke-linejoin: miter; stroke-linecap: square"/>
   </g>
   <g id="patch_4">
    <path d="M 39.52625 187.066 
L 205.787872 187.066 
" style="fill: none; stroke: #333333; stroke-width: 0.8; stroke-linejoin: miter; stroke-linecap: square"/>
   </g>
   <g id="PathCollection_1">
    <defs>
     <path id="mabfcdbaca7" d="M 0 2.872281 
C 0.761738 2.872281 1.49238 2.56964 2.03101 2.03101 
C 2.56964 1.49238 2.872281 0.761738 2.872281 0 
C 2.872281 -0.761738 2.56964 -1.49238 2.03101 -2.03101 
C 1.49238 -2.56964 0.761738 -2.872281 0 -2.872281 
C -0.761738 -2.872281 -1.49238 -2.56964 -2.03101 -2.03101 
C -2.56964 -1.49238 -2.872281 -0.761738 -2.872281 0 
C -2.872281 0.761738 -2.56964 1.49238 -2.03101 2.03101 
C -1.49238 2.56964 -0.761738 2.872281 0 2.872281 
z
" style="stroke: #ffffff; stroke-width: 0.5"/>
    </defs>
    <g clip-path="url(#p7d11b9f6b9)">
     <use xlink:href="#mabfcdbaca7" x="52.972438" y="154.306283" style="fill: #5185c0; stroke: #ffffff; stroke-width: 0.5"/>
    </g>
   </g>
   <g id="PathCollection_2">
    <defs>
     <path id="me6229d2a2b" d="M -2.872281 2.872281 
L 2.872281 2.872281 
L 2.872281 -2.872281 
L -2.872281 -2.872281 
z
" style="stroke: #ffffff; stroke-width: 0.5"/>
    </defs>
    <g clip-path="url(#p7d11b9f6b9)">
     <use xlink:href="#me6229d2a2b" x="54.935385" y="139.022603" style="fill: #5185c0; stroke: #ffffff; stroke-width: 0.5"/>
    </g>
   </g>
   <g id="PathCollection_3">
    <defs>
     <path id="m1e5a8e033a" d="M 0 -2.872281 
L -2.872281 2.872281 
L 2.872281 2.872281 
z
" style="stroke: #ffffff; stroke-width: 0.5"/>
    </defs>
    <g clip-path="url(#p7d11b9f6b9)">
     <use xlink:href="#m1e5a8e033a" x="56.898332" y="101.900786" style="fill: #5185c0; stroke: #ffffff; stroke-width: 0.5"/>
    </g>
   </g>
   <g id="PathCollection_4">
    <defs>
     <path id="m4b88d4e2dd" d="M -0 4.062019 
L 4.062019 0 
L 0 -4.062019 
L -4.062019 -0 
z
" style="stroke: #ffffff; stroke-width: 0.5"/>
    </defs>
    <g clip-path="url(#p7d11b9f6b9)">
     <use xlink:href="#m4b88d4e2dd" x="58.861279" y="72.31551" style="fill: #5185c0; stroke: #ffffff; stroke-width: 0.5"/>
    </g>
   </g>
   <g id="PathCollection_5">
    <defs>
     <path id="m4ad66da791" d="M 0 2.872281 
C 0.761738 2.872281 1.49238 2.56964 2.03101 2.03101 
C 2.56964 1.49238 2.872281 0.761738 2.872281 0 
C 2.872281 -0.761738 2.56964 -1.49238 2.03101 -2.03101 
C 1.49238 -2.56964 0.761738 -2.872281 0 -2.872281 
C -0.761738 -2.872281 -1.49238 -2.56964 -2.03101 -2.03101 
C -2.56964 -1.49238 -2.872281 -0.761738 -2.872281 0 
C -2.872281 0.761738 -2.56964 1.49238 -2.03101 2.03101 
C -1.49238 2.56964 -0.761738 2.872281 0 2.872281 
z
" style="stroke: #ffffff; stroke-width: 0.5"/>
    </defs>
    <g clip-path="url(#p7d11b9f6b9)">
     <use xlink:href="#m4ad66da791" x="70.638962" y="170.520558" style="fill: #c96144; stroke: #ffffff; stroke-width: 0.5"/>
    </g>
   </g>
   <g id="PathCollection_6">
    <defs>
     <path id="mb5fa4d5e92" d="M -2.872281 2.872281 
L 2.872281 2.872281 
L 2.872281 -2.872281 
L -2.872281 -2.872281 
z
" style="stroke: #ffffff; stroke-width: 0.5"/>
    </defs>
    <g clip-path="url(#p7d11b9f6b9)">
     <use xlink:href="#mb5fa4d5e92" x="72.601909" y="126.932633" style="fill: #c96144; stroke: #ffffff; stroke-width: 0.5"/>
    </g>
   </g>
   <g id="PathCollection_7">
    <defs>
     <path id="me7d125a5e7" d="M 0 -2.872281 
L -2.872281 2.872281 
L 2.872281 2.872281 
z
" style="stroke: #ffffff; stroke-width: 0.5"/>
    </defs>
    <g clip-path="url(#p7d11b9f6b9)">
     <use xlink:href="#me7d125a5e7" x="74.564856" y="116.095109" style="fill: #c96144; stroke: #ffffff; stroke-width: 0.5"/>
    </g>
   </g>
   <g id="PathCollection_8">
    <defs>
     <path id="m08b2c30e4c" d="M -0 4.062019 
L 4.062019 0 
L 0 -4.062019 
L -4.062019 -0 
z
" style="stroke: #ffffff; stroke-width: 0.5"/>
    </defs>
    <g clip-path="url(#p7d11b9f6b9)">
     <use xlink:href="#m08b2c30e4c" x="76.527803" y="74.947752" style="fill: #c96144; stroke: #ffffff; stroke-width: 0.5"/>
    </g>
   </g>
   <g id="PathCollection_9">
    <defs>
     <path id="ma075839839" d="M 0 2.872281 
C 0.761738 2.872281 1.49238 2.56964 2.03101 2.03101 
C 2.56964 1.49238 2.872281 0.761738 2.872281 0 
C 2.872281 -0.761738 2.56964 -1.49238 2.03101 -2.03101 
C 1.49238 -2.56964 0.761738 -2.872281 0 -2.872281 
C -0.761738 -2.872281 -1.49238 -2.56964 -2.03101 -2.03101 
C -2.56964 -1.49238 -2.872281 -0.761738 -2.872281 0 
C -2.872281 0.761738 -2.56964 1.49238 -2.03101 2.03101 
C -1.49238 2.56964 -0.761738 2.872281 0 2.872281 
z
" style="stroke: #ffffff; stroke-width: 0.5"/>
    </defs>
    <g clip-path="url(#p7d11b9f6b9)">
     <use xlink:href="#ma075839839" x="88.305486" y="103.431333" style="fill: #55966b; stroke: #ffffff; stroke-width: 0.5"/>
    </g>
   </g>
   <g id="PathCollection_10">
    <defs>
     <path id="mf4731622cc" d="M -2.872281 2.872281 
L 2.872281 2.872281 
L 2.872281 -2.872281 
L -2.872281 -2.872281 
z
" style="stroke: #ffffff; stroke-width: 0.5"/>
    </defs>
    <g clip-path="url(#p7d11b9f6b9)">
     <use xlink:href="#mf4731622cc" x="90.268433" y="91.753539" style="fill: #55966b; stroke: #ffffff; stroke-width: 0.5"/>
    </g>
   </g>
   <g id="PathCollection_11">
    <defs>
     <path id="m097e71d003" d="M 0 -2.872281 
L -2.872281 2.872281 
L 2.872281 2.872281 
z
" style="stroke: #ffffff; stroke-width: 0.5"/>
    </defs>
    <g clip-path="url(#p7d11b9f6b9)">
     <use xlink:href="#m097e71d003" x="92.23138" y="110.407062" style="fill: #55966b; stroke: #ffffff; stroke-width: 0.5"/>
    </g>
   </g>
   <g id="PathCollection_12">
    <defs>
     <path id="m98230ca113" d="M -0 4.062019 
L 4.062019 0 
L 0 -4.062019 
L -4.062019 -0 
z
" style="stroke: #ffffff; stroke-width: 0.5"/>
    </defs>
    <g clip-path="url(#p7d11b9f6b9)">
     <use xlink:href="#m98230ca113" x="94.194327" y="106.406823" style="fill: #55966b; stroke: #ffffff; stroke-width: 0.5"/>
    </g>
   </g>
   <g id="PathCollection_13">
    <g clip-path="url(#p7d11b9f6b9)">
     <use xlink:href="#mabfcdbaca7" x="151.119794" y="87.750122" style="fill: #5185c0; stroke: #ffffff; stroke-width: 0.5"/>
    </g>
   </g>
   <g id="PathCollection_14">
    <g clip-path="url(#p7d11b9f6b9)">
     <use xlink:href="#me6229d2a2b" x="153.082741" y="84.265998" style="fill: #5185c0; stroke: #ffffff; stroke-width: 0.5"/>
    </g>
   </g>
   <g id="PathCollection_15">
    <g clip-path="url(#p7d11b9f6b9)">
     <use xlink:href="#m1e5a8e033a" x="155.045688" y="111.694769" style="fill: #5185c0; stroke: #ffffff; stroke-width: 0.5"/>
    </g>
   </g>
   <g id="PathCollection_16">
    <g clip-path="url(#p7d11b9f6b9)">
     <use xlink:href="#m4b88d4e2dd" x="157.008636" y="74.181309" style="fill: #5185c0; stroke: #ffffff; stroke-width: 0.5"/>
    </g>
   </g>
   <g id="PathCollection_17">
    <g clip-path="url(#p7d11b9f6b9)">
     <use xlink:href="#m4ad66da791" x="168.786318" y="100.678223" style="fill: #c96144; stroke: #ffffff; stroke-width: 0.5"/>
    </g>
   </g>
   <g id="PathCollection_18">
    <g clip-path="url(#p7d11b9f6b9)">
     <use xlink:href="#mb5fa4d5e92" x="170.749265" y="85.221375" style="fill: #c96144; stroke: #ffffff; stroke-width: 0.5"/>
    </g>
   </g>
   <g id="PathCollection_19">
    <g clip-path="url(#p7d11b9f6b9)">
     <use xlink:href="#me7d125a5e7" x="172.712213" y="84.873851" style="fill: #c96144; stroke: #ffffff; stroke-width: 0.5"/>
    </g>
   </g>
   <g id="PathCollection_20">
    <g clip-path="url(#p7d11b9f6b9)">
     <use xlink:href="#m08b2c30e4c" x="174.67516" y="98.749728" style="fill: #c96144; stroke: #ffffff; stroke-width: 0.5"/>
    </g>
   </g>
   <g id="PathCollection_21">
    <g clip-path="url(#p7d11b9f6b9)">
     <use xlink:href="#ma075839839" x="186.452842" y="96.212752" style="fill: #55966b; stroke: #ffffff; stroke-width: 0.5"/>
    </g>
   </g>
   <g id="PathCollection_22">
    <g clip-path="url(#p7d11b9f6b9)">
     <use xlink:href="#mf4731622cc" x="188.41579" y="97.55952" style="fill: #55966b; stroke: #ffffff; stroke-width: 0.5"/>
    </g>
   </g>
   <g id="PathCollection_23">
    <g clip-path="url(#p7d11b9f6b9)">
     <use xlink:href="#m097e71d003" x="190.378737" y="113.929564" style="fill: #55966b; stroke: #ffffff; stroke-width: 0.5"/>
    </g>
   </g>
   <g id="PathCollection_24">
    <g clip-path="url(#p7d11b9f6b9)">
     <use xlink:href="#m98230ca113" x="192.341684" y="98.790859" style="fill: #55966b; stroke: #ffffff; stroke-width: 0.5"/>
    </g>
   </g>
   <g id="text_10">
    <text style="font-weight: 700; font-size: 10px; font-family: 'Arial', 'Helvetica', 'DejaVu Sans', sans-serif; text-anchor: start" x="17.912239" y="40.41712" transform="rotate(-0 17.912239 40.41712)">a</text>
   </g>
   <g id="text_11">
    <text style="font-weight: 700; font-size: 8.5px; font-family: 'Arial', 'Helvetica', 'DejaVu Sans', sans-serif; text-anchor: start" x="39.52625" y="43.718" transform="rotate(-0 39.52625 43.718)">Weak match to individual decisions</text>
   </g>
   <g id="line2d_16">
    <path d="M 47.083596 108.406942 
L 100.083169 108.406942 
" clip-path="url(#p7d11b9f6b9)" style="fill: none; stroke: #222222; stroke-width: 1.5; stroke-linecap: square"/>
   </g>
   <g id="line2d_17">
    <path d="M 145.230953 96.886136 
L 198.230525 96.886136 
" clip-path="url(#p7d11b9f6b9)" style="fill: none; stroke: #222222; stroke-width: 1.5; stroke-linecap: square"/>
   </g>
  </g>
  <g id="axes_2">
   <g id="patch_5">
    <path d="M 265.96735 187.066 
L 500.90225 187.066 
L 500.90225 48.718 
L 265.96735 48.718 
z
" style="fill: #ffffff"/>
   </g>
   <g id="matplotlib.axis_3">
    <g id="xtick_3">
     <g id="line2d_18">
      <g>
       <use xlink:href="#mea4c8e79f9" x="312.95433" y="187.066" style="stroke: #000000; stroke-width: 0.7"/>
      </g>
     </g>
     <g id="text_12">
      <text style="font-size: 7px; font-family: 'Arial', 'Helvetica', 'DejaVu Sans', sans-serif; text-anchor: middle" x="312.95433" y="199.166156" transform="rotate(-0 312.95433 199.166156)">Quzhou</text>
     </g>
    </g>
    <g id="xtick_4">
     <g id="line2d_19">
      <g>
       <use xlink:href="#mea4c8e79f9" x="422.226376" y="187.066" style="stroke: #000000; stroke-width: 0.7"/>
      </g>
     </g>
     <g id="text_13">
      <text style="font-size: 7px; font-family: 'Arial', 'Helvetica', 'DejaVu Sans', sans-serif; text-anchor: middle" x="422.226376" y="199.162191" transform="rotate(-0 422.226376 199.162191)">Africa</text>
     </g>
    </g>
   </g>
   <g id="matplotlib.axis_4">
    <g id="ytick_7">
     <g id="line2d_20">
      <path d="M 265.96735 187.066 
L 500.90225 187.066 
" clip-path="url(#p0752a600ac)" style="fill: none; stroke: #ececec; stroke-width: 0.55; stroke-linecap: square"/>
     </g>
     <g id="line2d_21">
      <g>
       <use xlink:href="#m49930c1596" x="265.96735" y="187.066" style="stroke: #000000; stroke-width: 0.7"/>
      </g>
     </g>
     <g id="text_14">
      <text style="font-size: 7px; font-family: 'Arial', 'Helvetica', 'DejaVu Sans', sans-serif; text-anchor: end" x="258.96735" y="189.614096" transform="rotate(-0 258.96735 189.614096)">0.5</text>
     </g>
    </g>
    <g id="ytick_8">
     <g id="line2d_22">
      <path d="M 265.96735 159.938941 
L 500.90225 159.938941 
" clip-path="url(#p0752a600ac)" style="fill: none; stroke: #ececec; stroke-width: 0.55; stroke-linecap: square"/>
     </g>
     <g id="line2d_23">
      <g>
       <use xlink:href="#m49930c1596" x="265.96735" y="159.938941" style="stroke: #000000; stroke-width: 0.7"/>
      </g>
     </g>
     <g id="text_15">
      <text style="font-size: 7px; font-family: 'Arial', 'Helvetica', 'DejaVu Sans', sans-serif; text-anchor: end" x="258.96735" y="162.487037" transform="rotate(-0 258.96735 162.487037)">0.6</text>
     </g>
    </g>
    <g id="ytick_9">
     <g id="line2d_24">
      <path d="M 265.96735 132.811882 
L 500.90225 132.811882 
" clip-path="url(#p0752a600ac)" style="fill: none; stroke: #ececec; stroke-width: 0.55; stroke-linecap: square"/>
     </g>
     <g id="line2d_25">
      <g>
       <use xlink:href="#m49930c1596" x="265.96735" y="132.811882" style="stroke: #000000; stroke-width: 0.7"/>
      </g>
     </g>
     <g id="text_16">
      <text style="font-size: 7px; font-family: 'Arial', 'Helvetica', 'DejaVu Sans', sans-serif; text-anchor: end" x="258.96735" y="135.359978" transform="rotate(-0 258.96735 135.359978)">0.7</text>
     </g>
    </g>
    <g id="ytick_10">
     <g id="line2d_26">
      <path d="M 265.96735 105.684824 
L 500.90225 105.684824 
" clip-path="url(#p0752a600ac)" style="fill: none; stroke: #ececec; stroke-width: 0.55; stroke-linecap: square"/>
     </g>
     <g id="line2d_27">
      <g>
       <use xlink:href="#m49930c1596" x="265.96735" y="105.684824" style="stroke: #000000; stroke-width: 0.7"/>
      </g>
     </g>
     <g id="text_17">
      <text style="font-size: 7px; font-family: 'Arial', 'Helvetica', 'DejaVu Sans', sans-serif; text-anchor: end" x="258.96735" y="108.232919" transform="rotate(-0 258.96735 108.232919)">0.8</text>
     </g>
    </g>
    <g id="ytick_11">
     <g id="line2d_28">
      <path d="M 265.96735 78.557765 
L 500.90225 78.557765 
" clip-path="url(#p0752a600ac)" style="fill: none; stroke: #ececec; stroke-width: 0.55; stroke-linecap: square"/>
     </g>
     <g id="line2d_29">
      <g>
       <use xlink:href="#m49930c1596" x="265.96735" y="78.557765" style="stroke: #000000; stroke-width: 0.7"/>
      </g>
     </g>
     <g id="text_18">
      <text style="font-size: 7px; font-family: 'Arial', 'Helvetica', 'DejaVu Sans', sans-serif; text-anchor: end" x="258.96735" y="81.10586" transform="rotate(-0 258.96735 81.10586)">0.9</text>
     </g>
    </g>
    <g id="ytick_12">
     <g id="line2d_30">
      <path d="M 265.96735 51.430706 
L 500.90225 51.430706 
" clip-path="url(#p0752a600ac)" style="fill: none; stroke: #ececec; stroke-width: 0.55; stroke-linecap: square"/>
     </g>
     <g id="line2d_31">
      <g>
       <use xlink:href="#m49930c1596" x="265.96735" y="51.430706" style="stroke: #000000; stroke-width: 0.7"/>
      </g>
     </g>
     <g id="text_19">
      <text style="font-size: 7px; font-family: 'Arial', 'Helvetica', 'DejaVu Sans', sans-serif; text-anchor: end" x="258.96735" y="53.978802" transform="rotate(-0 258.96735 53.978802)">1.0</text>
     </g>
    </g>
    <g id="text_20">
     <text style="font-size: 8px; font-family: 'Arial', 'Helvetica', 'DejaVu Sans', sans-serif; text-anchor: middle" x="243.5536" y="117.892" transform="rotate(-90 243.5536 117.892)">KS similarity</text>
    </g>
   </g>
   <g id="LineCollection_1">
    <path d="M 280.172716 72.998449 
L 345.735944 72.998449 
" clip-path="url(#p0752a600ac)" style="fill: none; stroke-dasharray: 4.995,2.16; stroke-dashoffset: 0; stroke: #9b3a32; stroke-width: 1.35"/>
   </g>
   <g id="LineCollection_2">
    <path d="M 280.172716 57.493054 
L 345.735944 57.493054 
" clip-path="url(#p0752a600ac)" style="fill: none; stroke: #777777"/>
   </g>
   <g id="line2d_32">
    <path d="M 345.735944 72.998449 
L 348.467745 72.998449 
" style="fill: none; stroke: #9b3a32; stroke-width: 0.65; stroke-linecap: square"/>
   </g>
   <g id="line2d_33">
    <path d="M 345.735944 57.493054 
L 348.467745 57.493054 
" style="fill: none; stroke: #777777; stroke-width: 0.65; stroke-linecap: square"/>
   </g>
   <g id="LineCollection_3">
    <path d="M 389.444763 66.820688 
L 455.00799 66.820688 
" clip-path="url(#p0752a600ac)" style="fill: none; stroke-dasharray: 4.995,2.16; stroke-dashoffset: 0; stroke: #9b3a32; stroke-width: 1.35"/>
   </g>
   <g id="LineCollection_4">
    <path d="M 389.444763 63.197552 
L 455.00799 63.197552 
" clip-path="url(#p0752a600ac)" style="fill: none; stroke: #777777"/>
   </g>
   <g id="line2d_34">
    <path d="M 455.00799 66.820688 
L 457.739792 74.958805 
" style="fill: none; stroke: #9b3a32; stroke-width: 0.65; stroke-linecap: square"/>
   </g>
   <g id="line2d_35">
    <path d="M 455.00799 63.197552 
L 457.739792 56.415787 
" style="fill: none; stroke: #777777; stroke-width: 0.65; stroke-linecap: square"/>
   </g>
   <g id="patch_6">
    <path d="M 265.96735 187.066 
L 265.96735 48.718 
" style="fill: none; stroke: #333333; stroke-width: 0.8; stroke-linejoin: miter; stroke-linecap: square"/>
   </g>
   <g id="patch_7">
    <path d="M 265.96735 187.066 
L 500.90225 187.066 
" style="fill: none; stroke: #333333; stroke-width: 0.8; stroke-linejoin: miter; stroke-linecap: square"/>
   </g>
   <g id="PathCollection_25">
    <g clip-path="url(#p0752a600ac)">
     <use xlink:href="#mabfcdbaca7" x="290.0072" y="168.56134" style="fill: #5185c0; stroke: #ffffff; stroke-width: 0.5"/>
    </g>
   </g>
   <g id="PathCollection_26">
    <g clip-path="url(#p0752a600ac)">
     <use xlink:href="#me6229d2a2b" x="292.192641" y="143.412413" style="fill: #5185c0; stroke: #ffffff; stroke-width: 0.5"/>
    </g>
   </g>
   <g id="PathCollection_27">
    <g clip-path="url(#p0752a600ac)">
     <use xlink:href="#m1e5a8e033a" x="294.378082" y="163.385032" style="fill: #5185c0; stroke: #ffffff; stroke-width: 0.5"/>
    </g>
   </g>
   <g id="PathCollection_28">
    <g clip-path="url(#p0752a600ac)">
     <use xlink:href="#m4b88d4e2dd" x="296.563523" y="134.887648" style="fill: #5185c0; stroke: #ffffff; stroke-width: 0.5"/>
    </g>
   </g>
   <g id="PathCollection_29">
    <g clip-path="url(#p0752a600ac)">
     <use xlink:href="#m4ad66da791" x="309.676169" y="170.214139" style="fill: #c96144; stroke: #ffffff; stroke-width: 0.5"/>
    </g>
   </g>
   <g id="PathCollection_30">
    <g clip-path="url(#p0752a600ac)">
     <use xlink:href="#mb5fa4d5e92" x="311.861609" y="166.037002" style="fill: #c96144; stroke: #ffffff; stroke-width: 0.5"/>
    </g>
   </g>
   <g id="PathCollection_31">
    <g clip-path="url(#p0752a600ac)">
     <use xlink:href="#me7d125a5e7" x="314.04705" y="150.30022" style="fill: #c96144; stroke: #ffffff; stroke-width: 0.5"/>
    </g>
   </g>
   <g id="PathCollection_32">
    <g clip-path="url(#p0752a600ac)">
     <use xlink:href="#m08b2c30e4c" x="316.232491" y="146.134978" style="fill: #c96144; stroke: #ffffff; stroke-width: 0.5"/>
    </g>
   </g>
   <g id="PathCollection_33">
    <g clip-path="url(#p0752a600ac)">
     <use xlink:href="#ma075839839" x="329.345137" y="144.231729" style="fill: #55966b; stroke: #ffffff; stroke-width: 0.5"/>
    </g>
   </g>
   <g id="PathCollection_34">
    <g clip-path="url(#p0752a600ac)">
     <use xlink:href="#mf4731622cc" x="331.530578" y="128.97364" style="fill: #55966b; stroke: #ffffff; stroke-width: 0.5"/>
    </g>
   </g>
   <g id="PathCollection_35">
    <g clip-path="url(#p0752a600ac)">
     <use xlink:href="#m097e71d003" x="333.716019" y="151.044353" style="fill: #55966b; stroke: #ffffff; stroke-width: 0.5"/>
    </g>
   </g>
   <g id="PathCollection_36">
    <g clip-path="url(#p0752a600ac)">
     <use xlink:href="#m98230ca113" x="335.90146" y="110.32499" style="fill: #55966b; stroke: #ffffff; stroke-width: 0.5"/>
    </g>
   </g>
   <g id="text_21">
    <text style="font-size: 6.1px; font-family: 'Arial', 'Helvetica', 'DejaVu Sans', sans-serif; text-anchor: start; fill: #9b3a32" x="350.106826" y="74.577002" transform="rotate(-0 350.106826 74.577002)">distribution-only</text>
   </g>
   <g id="text_22">
    <text style="font-size: 6.1px; font-family: 'Arial', 'Helvetica', 'DejaVu Sans', sans-serif; text-anchor: start; fill: #777777" x="350.106826" y="59.071607" transform="rotate(-0 350.106826 59.071607)">resampling reference</text>
   </g>
   <g id="PathCollection_37">
    <g clip-path="url(#p0752a600ac)">
     <use xlink:href="#mabfcdbaca7" x="399.279247" y="100.294642" style="fill: #5185c0; stroke: #ffffff; stroke-width: 0.5"/>
    </g>
   </g>
   <g id="PathCollection_38">
    <g clip-path="url(#p0752a600ac)">
     <use xlink:href="#me6229d2a2b" x="401.464688" y="95.15107" style="fill: #5185c0; stroke: #ffffff; stroke-width: 0.5"/>
    </g>
   </g>
   <g id="PathCollection_39">
    <g clip-path="url(#p0752a600ac)">
     <use xlink:href="#m1e5a8e033a" x="403.650129" y="89.038674" style="fill: #5185c0; stroke: #ffffff; stroke-width: 0.5"/>
    </g>
   </g>
   <g id="PathCollection_40">
    <g clip-path="url(#p0752a600ac)">
     <use xlink:href="#m4b88d4e2dd" x="405.835569" y="93.512877" style="fill: #5185c0; stroke: #ffffff; stroke-width: 0.5"/>
    </g>
   </g>
   <g id="PathCollection_41">
    <g clip-path="url(#p0752a600ac)">
     <use xlink:href="#m4ad66da791" x="418.948215" y="95.820439" style="fill: #c96144; stroke: #ffffff; stroke-width: 0.5"/>
    </g>
   </g>
   <g id="PathCollection_42">
    <g clip-path="url(#p0752a600ac)">
     <use xlink:href="#mb5fa4d5e92" x="421.133656" y="104.768845" style="fill: #c96144; stroke: #ffffff; stroke-width: 0.5"/>
    </g>
   </g>
   <g id="PathCollection_43">
    <g clip-path="url(#p0752a600ac)">
     <use xlink:href="#me7d125a5e7" x="423.319097" y="100.893551" style="fill: #c96144; stroke: #ffffff; stroke-width: 0.5"/>
    </g>
   </g>
   <g id="PathCollection_44">
    <g clip-path="url(#p0752a600ac)">
     <use xlink:href="#m08b2c30e4c" x="425.504538" y="96.965412" style="fill: #c96144; stroke: #ffffff; stroke-width: 0.5"/>
    </g>
   </g>
   <g id="PathCollection_45">
    <g clip-path="url(#p0752a600ac)">
     <use xlink:href="#ma075839839" x="438.617183" y="92.121294" style="fill: #55966b; stroke: #ffffff; stroke-width: 0.5"/>
    </g>
   </g>
   <g id="PathCollection_46">
    <g clip-path="url(#p0752a600ac)">
     <use xlink:href="#mf4731622cc" x="440.802624" y="126.294342" style="fill: #55966b; stroke: #ffffff; stroke-width: 0.5"/>
    </g>
   </g>
   <g id="PathCollection_47">
    <g clip-path="url(#p0752a600ac)">
     <use xlink:href="#m097e71d003" x="442.988065" y="94.058941" style="fill: #55966b; stroke: #ffffff; stroke-width: 0.5"/>
    </g>
   </g>
   <g id="PathCollection_48">
    <g clip-path="url(#p0752a600ac)">
     <use xlink:href="#m98230ca113" x="445.173506" y="92.913968" style="fill: #55966b; stroke: #ffffff; stroke-width: 0.5"/>
    </g>
   </g>
   <g id="text_23">
    <text style="font-size: 6.1px; font-family: 'Arial', 'Helvetica', 'DejaVu Sans', sans-serif; text-anchor: start; fill: #9b3a32" x="459.378872" y="76.537359" transform="rotate(-0 459.378872 76.537359)">distribution-only</text>
   </g>
   <g id="text_24">
    <text style="font-size: 6.1px; font-family: 'Arial', 'Helvetica', 'DejaVu Sans', sans-serif; text-anchor: start; fill: #777777" x="459.378872" y="57.994341" transform="rotate(-0 459.378872 57.994341)">resampling reference</text>
   </g>
   <g id="text_25">
    <text style="font-weight: 700; font-size: 10px; font-family: 'Arial', 'Helvetica', 'DejaVu Sans', sans-serif; text-anchor: start" x="235.425813" y="40.41712" transform="rotate(-0 235.425813 40.41712)">b</text>
   </g>
   <g id="text_26">
    <text style="font-weight: 700; font-size: 8.5px; font-family: 'Arial', 'Helvetica', 'DejaVu Sans', sans-serif; text-anchor: start" x="265.96735" y="43.718" transform="rotate(-0 265.96735 43.718)">Distribution-only reference exceeds every agent</text>
   </g>
  </g>
  <g id="legend_1">
   <g id="line2d_36">
    <defs>
     <path id="m1d0b756915" d="M 0 2.5 
C 0.663008 2.5 1.29895 2.236584 1.767767 1.767767 
C 2.236584 1.29895 2.5 0.663008 2.5 0 
C 2.5 -0.663008 2.236584 -1.29895 1.767767 -1.767767 
C 1.29895 -2.236584 0.663008 -2.5 0 -2.5 
C -0.663008 -2.5 -1.29895 -2.236584 -1.767767 -1.767767 
C -2.236584 -1.29895 -2.5 -0.663008 -2.5 0 
C -2.5 0.663008 -2.236584 1.29895 -1.767767 1.767767 
C -1.29895 2.236584 -0.663008 2.5 0 2.5 
z
" style="stroke: #5185c0"/>
    </defs>
    <g>
     <use xlink:href="#m1d0b756915" x="148.614422" y="12.646191" style="fill: #5185c0; stroke: #5185c0"/>
    </g>
   </g>
   <g id="text_27">
    <text style="font-size: 7px; font-family: 'Arial', 'Helvetica', 'DejaVu Sans', sans-serif; text-anchor: start" x="158.064422" y="15.096191" transform="rotate(-0 158.064422 15.096191)">Claude</text>
   </g>
   <g id="line2d_37">
    <defs>
     <path id="m1ac523de2d" d="M 0 2.5 
C 0.663008 2.5 1.29895 2.236584 1.767767 1.767767 
C 2.236584 1.29895 2.5 0.663008 2.5 0 
C 2.5 -0.663008 2.236584 -1.29895 1.767767 -1.767767 
C 1.29895 -2.236584 0.663008 -2.5 0 -2.5 
C -0.663008 -2.5 -1.29895 -2.236584 -1.767767 -1.767767 
C -2.236584 -1.29895 -2.5 -0.663008 -2.5 0 
C -2.5 0.663008 -2.236584 1.29895 -1.767767 1.767767 
C -1.29895 2.236584 -0.663008 2.5 0 2.5 
z
" style="stroke: #c96144"/>
    </defs>
    <g>
     <use xlink:href="#m1ac523de2d" x="193.545672" y="12.646191" style="fill: #c96144; stroke: #c96144"/>
    </g>
   </g>
   <g id="text_28">
    <text style="font-size: 7px; font-family: 'Arial', 'Helvetica', 'DejaVu Sans', sans-serif; text-anchor: start" x="202.995672" y="15.096191" transform="rotate(-0 202.995672 15.096191)">Codex</text>
   </g>
   <g id="line2d_38">
    <defs>
     <path id="m6fe8422cbf" d="M 0 2.5 
C 0.663008 2.5 1.29895 2.236584 1.767767 1.767767 
C 2.236584 1.29895 2.5 0.663008 2.5 0 
C 2.5 -0.663008 2.236584 -1.29895 1.767767 -1.767767 
C 1.29895 -2.236584 0.663008 -2.5 0 -2.5 
C -0.663008 -2.5 -1.29895 -2.236584 -1.767767 -1.767767 
C -2.236584 -1.29895 -2.5 -0.663008 -2.5 0 
C -2.5 0.663008 -2.236584 1.29895 -1.767767 1.767767 
C -1.29895 2.236584 -0.663008 2.5 0 2.5 
z
" style="stroke: #55966b"/>
    </defs>
    <g>
     <use xlink:href="#m6fe8422cbf" x="236.528953" y="12.646191" style="fill: #55966b; stroke: #55966b"/>
    </g>
   </g>
   <g id="text_29">
    <text style="font-size: 7px; font-family: 'Arial', 'Helvetica', 'DejaVu Sans', sans-serif; text-anchor: start" x="245.978953" y="15.096191" transform="rotate(-0 245.978953 15.096191)">Kimi</text>
   </g>
   <g id="line2d_39">
    <defs>
     <path id="meedffc0c4a" d="M 0 2.5 
C 0.663008 2.5 1.29895 2.236584 1.767767 1.767767 
C 2.236584 1.29895 2.5 0.663008 2.5 0 
C 2.5 -0.663008 2.236584 -1.29895 1.767767 -1.767767 
C 1.29895 -2.236584 0.663008 -2.5 0 -2.5 
C -0.663008 -2.5 -1.29895 -2.236584 -1.767767 -1.767767 
C -2.236584 -1.29895 -2.5 -0.663008 -2.5 0 
C -2.5 0.663008 -2.236584 1.29895 -1.767767 1.767767 
C -1.29895 2.236584 -0.663008 2.5 0 2.5 
z
" style="stroke: #555555"/>
    </defs>
    <g>
     <use xlink:href="#meedffc0c4a" x="272.889578" y="12.646191" style="fill: #ffffff; stroke: #555555"/>
    </g>
   </g>
   <g id="text_30">
    <text style="font-size: 7px; font-family: 'Arial', 'Helvetica', 'DejaVu Sans', sans-serif; text-anchor: start" x="282.339578" y="15.096191" transform="rotate(-0 282.339578 15.096191)">T1</text>
   </g>
   <g id="line2d_40">
    <defs>
     <path id="m16e7ef1c95" d="M -2.5 2.5 
L 2.5 2.5 
L 2.5 -2.5 
L -2.5 -2.5 
z
" style="stroke: #555555; stroke-linejoin: miter"/>
    </defs>
    <g>
     <use xlink:href="#m16e7ef1c95" x="303.807703" y="12.646191" style="fill: #ffffff; stroke: #555555; stroke-linejoin: miter"/>
    </g>
   </g>
   <g id="text_31">
    <text style="font-size: 7px; font-family: 'Arial', 'Helvetica', 'DejaVu Sans', sans-serif; text-anchor: start" x="313.257703" y="15.096191" transform="rotate(-0 313.257703 15.096191)">T2</text>
   </g>
   <g id="line2d_41">
    <defs>
     <path id="m7d4dc44273" d="M 0 -2.5 
L -2.5 2.5 
L 2.5 2.5 
z
" style="stroke: #555555; stroke-linejoin: miter"/>
    </defs>
    <g>
     <use xlink:href="#m7d4dc44273" x="334.725828" y="12.646191" style="fill: #ffffff; stroke: #555555; stroke-linejoin: miter"/>
    </g>
   </g>
   <g id="text_32">
    <text style="font-size: 7px; font-family: 'Arial', 'Helvetica', 'DejaVu Sans', sans-serif; text-anchor: start" x="344.175828" y="15.096191" transform="rotate(-0 344.175828 15.096191)">T3</text>
   </g>
   <g id="line2d_42">
    <defs>
     <path id="me633b91a58" d="M -0 3.535534 
L 3.535534 0 
L 0 -3.535534 
L -3.535534 -0 
z
" style="stroke: #555555; stroke-linejoin: miter"/>
    </defs>
    <g>
     <use xlink:href="#me633b91a58" x="365.643953" y="12.646191" style="fill: #ffffff; stroke: #555555; stroke-linejoin: miter"/>
    </g>
   </g>
   <g id="text_33">
    <text style="font-size: 7px; font-family: 'Arial', 'Helvetica', 'DejaVu Sans', sans-serif; text-anchor: start" x="375.093953" y="15.096191" transform="rotate(-0 375.093953 15.096191)">T4</text>
   </g>
  </g>
 </g>
 <defs>
  <clipPath id="p7d11b9f6b9">
   <rect x="39.52625" y="48.718" width="166.261622" height="138.348"/>
  </clipPath>
  <clipPath id="p0752a600ac">
   <rect x="265.96735" y="48.718" width="234.9349" height="138.348"/>
  </clipPath>
 </defs>
</svg>
